<svg width="20.000131607055664" height="19" viewBox="0 0 20.000131607055664 19">
    <path d="M2.05783 14.4291C2.02261 14.4644 1.98524 14.4973 1.94596 14.5277C1.90669 14.5581 1.86565 14.5856 1.82295 14.6106C1.58827 14.7517 1.33404 14.7719 1.0798 14.7114C1.06025 14.7114 1.04069 14.7114 1.04069 14.7114C0.512666 14.5098 -0.054473 14.9332 0.00419651 15.5179C0.473553 20.0343 7.39676 20.2157 9.15684 15.7195C9.16036 15.7107 9.16361 15.702 9.16682 15.6931C9.17002 15.6842 9.17311 15.6751 9.17601 15.6661C9.1789 15.6571 9.18164 15.648 9.18422 15.6389C9.1868 15.6297 9.18919 15.6207 9.19146 15.6114C9.19369 15.6022 9.19578 15.5929 9.19771 15.5836C9.19963 15.5743 9.20139 15.565 9.203 15.5556C9.20458 15.5462 9.20601 15.537 9.2073 15.5276C9.20855 15.5181 9.20968 15.5086 9.21062 15.4991C9.21156 15.4897 9.21236 15.4802 9.21297 15.4707C9.21358 15.4612 9.21406 15.4518 9.21434 15.4423C9.21461 15.4328 9.21453 15.4233 9.21453 15.4139C9.21453 15.4043 9.21434 15.3947 9.21395 15.3852C9.21354 15.3757 9.21291 15.3663 9.21219 15.3568C9.21144 15.3473 9.21051 15.3378 9.20945 15.3284C9.20839 15.3189 9.20712 15.3095 9.20573 15.3001C9.20433 15.2907 9.20276 15.2814 9.20104 15.2721C9.19932 15.2628 9.1974 15.2535 9.19537 15.2443C9.1933 15.235 9.19109 15.2257 9.18872 15.2165C9.18633 15.2073 9.18399 15.1981 9.18129 15.189C9.17859 15.1799 9.17569 15.171 9.17268 15.162C9.16967 15.153 9.16642 15.1441 9.1631 15.1352C9.15976 15.1263 9.15637 15.1175 9.15273 15.1088C9.1491 15.1 9.14513 15.0914 9.1412 15.0828C9.13725 15.0742 9.1333 15.0658 9.12907 15.0574C9.12481 15.0489 9.12031 15.0404 9.11577 15.0322C9.11124 15.0239 9.1065 15.0159 9.10169 15.0078C9.09686 14.9997 9.09193 14.9915 9.08683 14.9836C9.08173 14.9757 9.07656 14.9679 9.07118 14.9602C9.06579 14.9524 9.06019 14.9449 9.05456 14.9374C9.04889 14.9299 9.04326 14.9225 9.03735 14.9152C9.03145 14.9079 9.02532 14.9007 9.01916 14.8937C9.01298 14.8866 9.00678 14.8795 9.00039 14.8727L5.51913 11.324C5.51037 11.3153 5.50146 11.3069 5.49234 11.2986C5.48319 11.2903 5.47388 11.2823 5.46438 11.2744C5.45487 11.2666 5.44529 11.259 5.43543 11.2517C5.42556 11.2443 5.4155 11.2371 5.40532 11.2303C5.39511 11.2234 5.3847 11.2167 5.37422 11.2103C5.3637 11.204 5.35312 11.198 5.34234 11.1922C5.33155 11.1863 5.32052 11.1807 5.30949 11.1754C5.29842 11.1701 5.28731 11.1652 5.27605 11.1605C5.26476 11.1558 5.2535 11.1512 5.24202 11.147C5.23052 11.1428 5.21886 11.1389 5.20721 11.1353C5.19555 11.1317 5.18382 11.1284 5.17201 11.1254C5.16019 11.1224 5.14834 11.1196 5.13641 11.1172C5.12444 11.1147 5.11246 11.1128 5.10043 11.1109C5.08838 11.1091 5.07616 11.1075 5.06405 11.1063C5.05193 11.105 5.03982 11.1039 5.02768 11.1033C5.01551 11.1026 5.00347 11.1023 4.9913 11.1023C3.25077 11.1023 2.62497 11.8886 2.37073 13.5016L2.37073 13.5621C2.2925 14.0863 2.23383 14.2678 2.13605 14.3888L2.05783 14.4291ZM7.67055 15.6187C6.37982 17.8769 2.97679 17.9777 1.90118 16.2841C1.97182 16.2692 2.04185 16.2513 2.11102 16.2302C2.18017 16.2092 2.24838 16.1851 2.31558 16.1581C2.38276 16.131 2.44859 16.1012 2.5133 16.0683C2.57801 16.0355 2.64141 15.9998 2.70319 15.9615C2.75345 15.9291 2.80252 15.8953 2.85065 15.8597C2.89876 15.824 2.94567 15.7867 2.99145 15.7479C3.03722 15.7092 3.08177 15.6689 3.12503 15.6272C3.16826 15.5854 3.21025 15.5423 3.25077 15.4977C3.6419 15.0743 3.75924 14.6912 3.89614 13.8242L3.89614 13.7637C4.01348 12.9774 4.11126 12.7556 4.71751 12.7153L7.67055 15.6187ZM8.96128 13.7839C8.98032 13.8039 8.99974 13.8235 9.01975 13.8426C9.03974 13.8616 9.06025 13.8802 9.08116 13.8982C9.10205 13.9162 9.12336 13.9337 9.14511 13.9506C9.16684 13.9676 9.18888 13.9839 9.2114 13.9996C9.23393 14.0154 9.25697 14.0306 9.28024 14.0452C9.3035 14.0598 9.3271 14.0737 9.35104 14.0871C9.37498 14.1005 9.39923 14.1133 9.42379 14.1255C9.44833 14.1376 9.47299 14.1492 9.4981 14.1601C9.52321 14.171 9.54858 14.1812 9.57418 14.1908C9.59978 14.2003 9.62557 14.2091 9.65162 14.2174C9.67763 14.2256 9.70403 14.2333 9.73043 14.2402C9.75684 14.2471 9.78333 14.2534 9.81003 14.2589C9.83672 14.2645 9.86346 14.2693 9.89041 14.2734C9.91732 14.2776 9.94446 14.2812 9.97157 14.2839C9.99865 14.2867 10.0257 14.2888 10.0529 14.2902C10.0801 14.2916 10.1074 14.2924 10.1347 14.2924C10.1619 14.2924 10.189 14.2916 10.2162 14.2902C10.2434 14.2888 10.2705 14.2867 10.2976 14.2839C10.3247 14.2812 10.3518 14.2776 10.3787 14.2734C10.4057 14.2693 10.4324 14.2645 10.4591 14.2589C10.4858 14.2534 10.5125 14.2471 10.5389 14.2402C10.5653 14.2333 10.5915 14.2256 10.6175 14.2174C10.6435 14.2091 10.6694 14.2003 10.695 14.1908C10.7206 14.1812 10.7459 14.171 10.771 14.1601C10.7961 14.1492 10.821 14.1376 10.8455 14.1255C10.8701 14.1133 10.8942 14.1005 10.9181 14.0871C10.942 14.0737 10.9656 14.0598 10.9889 14.0452C11.0121 14.0306 11.0352 14.0154 11.0577 13.9996C11.0803 13.9839 11.1023 13.9676 11.124 13.9506C11.1458 13.9337 11.1671 13.9162 11.188 13.8982C11.2089 13.8802 11.2294 13.8616 11.2494 13.8426C11.2694 13.8235 11.289 13.8039 11.3081 13.7839L11.3863 13.7032L11.6405 13.4411C11.9143 13.1589 12.2468 12.8161 12.5988 12.433C13.5766 11.3845 14.574 10.2756 15.5127 9.16664C15.966 8.63087 16.4093 8.08648 16.8426 7.53346C19.6977 3.90417 20.832 1.58546 19.3458 0.395855C18.0355 -0.652606 15.8843 0.436175 12.7748 3.01701C12.1903 3.50107 11.6167 3.99841 11.0538 4.50905C9.99071 5.47428 8.95422 6.46897 7.94434 7.49313C7.53578 7.9053 7.13161 8.322 6.73183 8.74322L6.65361 8.84403C6.0278 9.5094 6.0278 10.5982 6.65361 11.2636L9.00039 13.7032L8.96128 13.7839ZM10.0564 12.6749L7.70966 10.2353C7.70804 10.2336 7.7063 10.2319 7.70477 10.2302C7.70321 10.2285 7.70172 10.2268 7.70027 10.225C7.69881 10.2232 7.69753 10.2214 7.69617 10.2195C7.6948 10.2177 7.69331 10.2158 7.69206 10.2139C7.69077 10.212 7.68971 10.2098 7.68854 10.2078C7.68737 10.2058 7.68609 10.2038 7.68502 10.2018C7.68392 10.1997 7.68287 10.1976 7.68189 10.1955C7.68091 10.1934 7.68001 10.1914 7.67915 10.1893C7.67825 10.1871 7.67737 10.1848 7.67661 10.1826C7.67583 10.1804 7.67512 10.1782 7.67446 10.176C7.67379 10.1737 7.67325 10.1716 7.6727 10.1693C7.67213 10.1671 7.67156 10.1648 7.67113 10.1625C7.67068 10.1602 7.67029 10.1577 7.66996 10.1554C7.66961 10.1531 7.66939 10.1509 7.66918 10.1486C7.66894 10.1462 7.66859 10.1438 7.66859 10.1415C7.66859 10.1392 7.6684 10.1368 7.6684 10.1344C7.6684 10.1321 7.66859 10.1299 7.66859 10.1276C7.66859 10.1253 7.66894 10.1229 7.66918 10.1205C7.66939 10.1182 7.66961 10.1158 7.66996 10.1135C7.67029 10.1112 7.67068 10.1089 7.67113 10.1066C7.67156 10.1043 7.67213 10.102 7.6727 10.0998C7.67325 10.0975 7.67379 10.0954 7.67446 10.0931C7.67512 10.0909 7.67583 10.0887 7.67661 10.0865C7.67737 10.0843 7.67825 10.082 7.67915 10.0798C7.68001 10.0776 7.68091 10.0755 7.68189 10.0734C7.68287 10.0712 7.68392 10.0692 7.68502 10.0671C7.68609 10.065 7.68737 10.0631 7.68854 10.0611C7.68971 10.0591 7.69077 10.0571 7.69206 10.0552C7.69331 10.0533 7.6948 10.0514 7.69617 10.0496C7.69753 10.0477 7.69881 10.0457 7.70027 10.0439C7.70172 10.0421 7.70321 10.0404 7.70477 10.0387C7.7063 10.0369 7.70804 10.0353 7.70966 10.0336L7.78789 9.95298C8.18121 9.53854 8.57885 9.12857 8.98083 8.72306C9.97172 7.71962 10.9887 6.74509 12.0316 5.79946C12.5817 5.30251 13.1423 4.81861 13.7135 4.34775C14.9456 3.33961 16.0212 2.57343 16.9012 2.12985C17.7226 1.70643 18.2311 1.64594 18.3875 1.76692C18.4657 1.82741 18.4266 2.27099 18.0355 3.09766C17.6053 4.02514 16.8034 5.21474 15.7278 6.58581C15.3367 7.08988 14.9065 7.63427 14.4371 8.17866C13.5121 9.27261 12.5604 10.3412 11.5819 11.3845C11.1564 11.8397 10.7261 12.29 10.2911 12.7354C10.252 12.7758 10.1542 12.7758 10.1151 12.7354L10.0564 12.6749Z"
          fill="white"
          stroke="white"
          stroke-width="0.1"/>
</svg>