<svg xmlns="http://www.w3.org/2000/svg" viewBox="0 0 1024 1024">
    <path d="M985.403 552.96C985.403 812.702 773.041 1024 512 1024S38.597 812.702 38.597 552.96c0-158.208 79.163-304.955 211.771-392.625 31.074-20.52 72.94-11.973 93.46 19.101s12.012 72.94-19.062 93.46c-94.681 62.622-151.237 167.306-151.237 280.064 0 185.344 151.788 336.108 338.471 336.108S850.471 738.304 850.471 552.96c0-114.649-57.974-220.278-155.096-282.585-31.35-20.125-40.448-61.833-20.362-93.184s61.794-40.448 93.184-20.4c135.995 87.236 217.206 235.362 217.206 396.169zM512 560.128c37.258 0 67.466-30.208 67.466-67.466V67.466C579.466 30.208 549.258 0 512 0s-67.466 30.208-67.466 67.466v425.196c0 37.258 30.208 67.466 67.466 67.466z" 
        fill="white" 
        stroke="white" 
        stroke-width="3.3"/>
</svg>