<svg xmlns="http://www.w3.org/2000/svg" xmlns:xlink="http://www.w3.org/1999/xlink" width="1024" height="1024" viewBox="0 0 1024 1024" fill="none">
<rect x="0" y="0" width="1024" height="1024"   fill="#FFFFFF" fill-opacity="0">
</rect>
<path d="M898.37 735.25L898.37 288.75L511.69 65.5L125.01 288.75L125.01 735.25L511.69 958.5L898.37 735.25Z"   fill="#2810B3" >
</path>
<g filter="url(#filter_18_6)">
<path d="M898.94 288.58L898.94 735.73L511.69 959.31L438.81 917.23L386.05 886.77L385.75 885.95L433.21 877.5L454.62 889.86L512.26 923.14L868.26 717.61L868.26 306.54L811.93 274.02L789.78 261.23L773.75 216.95L774.61 216.8L827.37 247.26L898.94 288.58Z"   fill="url(#linear_fill_18_7)" >
</path>
<path d="M927.38 752L511.69 992L424.66 941.75L401.01 928.1L386.05 886.77L438.81 917.23L511.69 959.31L898.94 735.73L898.94 288.58L827.37 247.26L774.61 216.8L818.29 209.02L841.67 222.51L927.38 272L927.38 752Z"   fill="url(#linear_fill_18_8)" >
</path>
</g>
<g filter="url(#filter_18_9)">
<path d="M637.06 138.11L590.81 146.35L568.59 133.52L512.26 101L156.27 306.54L156.27 717.61L211.1 749.26L232.43 761.58L248.87 807.01L248.13 807.14L195.29 776.64L124.44 735.73L124.44 288.58L511.69 65L584.04 106.77L636.73 137.19L637.06 138.11Z"   fill="url(#linear_fill_18_10)" >
</path>
<path d="M584.04 106.77L511.69 65L124.44 288.58L124.44 735.73L195.29 776.64L248.13 807.14L204.86 814.85L181.14 801.15L96 752L96 272L388.656 103.034L511.69 32L598.32 82.02L621.62 95.47L636.73 137.19L584.04 106.77Z"   fill="url(#linear_fill_18_11)" >
</path>
</g>
<path d="M844.19 319.9L511.87 128.03L179.54 319.9L179.54 703.63L511.87 895.5L844.19 703.63L844.19 319.9Z"   fill="#3B46E3" >
</path>
<path d="M814.19 686.46L814.19 336.85L511.42 162.05L208.65 336.85L208.65 686.46L511.42 861.26L814.19 686.46Z"   fill="url(#linear_fill_18_13)" >
</path>
<g >
<g filter="url(#filter_18_14)">
<path     fill="#FFFFFF"  d="M358.188 358.827Q379.699 358.827 395.598 365.958Q411.497 373.089 420.031 386.183Q428.565 399.276 428.565 416.812Q428.565 434.347 420.031 447.441Q411.497 460.534 395.598 467.665Q379.699 474.797 358.188 474.797L336.21 474.797L336.21 529.976L296.229 529.976L296.229 358.827L358.188 358.827ZM353.746 441.128Q368.242 441.128 377.361 435.516Q386.479 429.905 386.479 416.812Q386.479 403.952 377.244 398.224Q368.008 392.495 353.746 392.495L336.21 392.495L336.21 441.128L353.746 441.128ZM535.684 496.307Q558.831 496.307 569.353 471.991L602.787 491.631Q599.046 502.854 589.928 512.323Q580.809 521.792 567.131 527.404Q553.453 533.015 536.619 533.015Q513.472 533.015 494.3 522.026Q475.127 511.037 463.904 490.812Q452.681 470.588 452.681 444.167Q452.681 417.747 463.904 397.639Q475.127 377.532 494.3 366.542Q513.472 355.553 536.619 355.553Q553.453 355.553 567.131 361.165Q580.809 366.776 589.928 376.246Q599.046 385.715 602.787 396.938L569.353 416.578Q558.831 392.262 535.684 392.262Q524.227 392.262 514.992 398.458Q505.756 404.654 500.262 416.461Q494.767 428.268 494.767 444.167Q494.767 460.066 500.262 471.991Q505.756 483.915 514.992 490.111Q524.227 496.307 535.684 496.307ZM633.918 358.827L673.899 358.827L673.899 494.437L748.952 494.437L748.952 529.976L633.918 529.976L633.918 358.827Z">
</path>
</g>
</g>
<g filter="url(#filter_18_15)">
<path d="M352.07 257.88L212.5 338.46L212.5 496.72L175.32 496.72L175.32 317L208.62 297.77L333.48 225.68L352.07 257.88Z"   fill="url(#linear_fill_18_15)" >
</path>
</g>
<g filter="url(#filter_18_16)">
<path d="M671.43 765.47L811 684.89L811 526.63L848.18 526.63L848.18 706.35L814.88 725.58L690.02 797.67L671.43 765.47Z"   fill="url(#linear_fill_18_16)" >
</path>
</g>
<g filter="url(#filter_18_18)">
<rect  x="347" y="600" width="329" height="147" rx="73.5"    fill="url(#linear_fill_18_18_0)" >
</rect>
</g>
<g >
<path     fill="#FFFFFF"  d="M421.501 640.356Q429.413 640.356 435.261 642.979Q441.109 645.602 444.248 650.418Q447.387 655.234 447.387 661.684Q447.387 668.134 444.248 672.95Q441.109 677.766 435.261 680.389Q429.413 683.012 421.501 683.012L413.417 683.012L413.417 703.308L398.711 703.308L398.711 640.356L421.501 640.356ZM419.867 670.628Q425.199 670.628 428.553 668.564Q431.907 666.5 431.907 661.684Q431.907 656.954 428.51 654.847Q425.113 652.74 419.867 652.74L413.417 652.74L413.417 670.628L419.867 670.628ZM480.104 657.642Q482.856 657.642 485.307 658.502Q487.758 659.362 488.962 660.738L483.544 671.402Q480.792 669.596 478.04 669.596Q473.482 669.596 470.816 673.38Q468.15 677.164 468.15 683.614L468.15 703.308L454.132 703.308L454.132 658.846L466.602 658.846Q466.774 663.06 467.376 665.726Q469.354 661.77 472.665 659.706Q475.976 657.642 480.104 657.642ZM490.892 681.034Q490.892 673.982 494.117 668.65Q497.342 663.318 502.76 660.48Q508.178 657.642 514.37 657.642Q520.562 657.642 525.937 660.48Q531.312 663.318 534.494 668.65Q537.676 673.982 537.676 681.034Q537.676 688.172 534.494 693.461Q531.312 698.75 525.98 701.588Q520.648 704.426 514.37 704.426Q508.092 704.426 502.717 701.588Q497.342 698.75 494.117 693.461Q490.892 688.172 490.892 681.034ZM505.34 681.034Q505.34 686.28 507.877 689.333Q510.414 692.386 514.284 692.386Q518.068 692.386 520.605 689.333Q523.142 686.28 523.142 681.034Q523.142 675.788 520.605 672.692Q518.068 669.596 514.284 669.596Q510.414 669.596 507.877 672.692Q505.34 675.788 505.34 681.034ZM579.51 700.126Q574.694 704.426 565.922 704.426Q558.096 704.426 553.366 700.341Q548.636 696.256 548.636 685.85L548.636 670.628L540.466 670.628L540.466 658.846L548.636 658.846L548.636 644.57L562.654 644.57L562.654 658.846L576.242 658.846L576.242 670.628L562.654 670.628L562.654 683.356Q562.654 687.656 563.944 690.021Q565.234 692.386 568.846 692.386Q571.77 692.386 574.608 690.408L579.51 700.126ZM581.525 681.034Q581.525 673.982 584.75 668.65Q587.975 663.318 593.393 660.48Q598.811 657.642 605.003 657.642Q611.195 657.642 616.57 660.48Q621.945 663.318 625.127 668.65Q628.309 673.982 628.309 681.034Q628.309 688.172 625.127 693.461Q621.945 698.75 616.613 701.588Q611.281 704.426 605.003 704.426Q598.725 704.426 593.35 701.588Q587.975 698.75 584.75 693.461Q581.525 688.172 581.525 681.034ZM595.973 681.034Q595.973 686.28 598.51 689.333Q601.047 692.386 604.917 692.386Q608.701 692.386 611.238 689.333Q613.775 686.28 613.775 681.034Q613.775 675.788 611.238 672.692Q608.701 669.596 604.917 669.596Q601.047 669.596 598.51 672.692Q595.973 675.788 595.973 681.034Z">
</path>
</g>
<defs>
<linearGradient id="linear_fill_18_7" x1="898.93994140625" y1="588.0498046875" x2="467.86041259765625" y2="588.0498046875" gradientUnits="userSpaceOnUse">
<stop offset="0" stop-color="#3B65E3"  />
<stop offset="1" stop-color="#6289FC"  />
</linearGradient>
<linearGradient id="linear_fill_18_8" x1="1000.260009765625" y1="398.2200164794922" x2="321.3800048828125" y2="790.1700439453125" gradientUnits="userSpaceOnUse">
<stop offset="0" stop-color="#6383FF"  />
<stop offset="1" stop-color="#9CB8FF"  />
</linearGradient>
<filter id="filter_18_6" x="381.75" y="207.02001953125" width="549.6300048828125" height="790.97998046875" filterUnits="userSpaceOnUse" color-interpolation-filters="sRGB">
<feFlood flood-opacity="0" result="feFloodId_18_6"/>
<feColorMatrix in="SourceAlpha" type="matrix" values="0 0 0 0 0 0 0 0 0 0 0 0 0 0 0 0 0 0 127 0" result="hardAlpha_18_6"/>
<feOffset dx="0" dy="2"/>
<feGaussianBlur stdDeviation="2"/>
<feComposite in2="hardAlpha_18_6" operator="out"/>
<feColorMatrix type="matrix" values="0 0 0 0 0 0 0 0 0 0 0 0 0 0 0 0 0 0 0.5 0"/>
<feBlend mode="normal" in2="feFloodId_18_6" result="dropShadow_1_18_6"/>
<feBlend mode="normal" in="SourceGraphic" in2="dropShadow_1_18_6" result="shape_18_6"/>
</filter>
<linearGradient id="linear_fill_18_10" x1="502.72039794921875" y1="219.55279541015625" x2="124.44000244140625" y2="436.07000732421875" gradientUnits="userSpaceOnUse">
<stop offset="0" stop-color="#627FFC"  />
<stop offset="1" stop-color="#3B41E3"  />
</linearGradient>
<linearGradient id="linear_fill_18_11" x1="23.029998779296875" y1="625.6099853515625" x2="701.530029296875" y2="233.8800048828125" gradientUnits="userSpaceOnUse">
<stop offset="0" stop-color="#61A0FF"  />
<stop offset="1" stop-color="#9CB9FF"  />
</linearGradient>
<filter id="filter_18_9" x="92" y="30" width="549.06005859375" height="790.8499755859375" filterUnits="userSpaceOnUse" color-interpolation-filters="sRGB">
<feFlood flood-opacity="0" result="feFloodId_18_9"/>
<feColorMatrix in="SourceAlpha" type="matrix" values="0 0 0 0 0 0 0 0 0 0 0 0 0 0 0 0 0 0 127 0" result="hardAlpha_18_9"/>
<feOffset dx="0" dy="2"/>
<feGaussianBlur stdDeviation="2"/>
<feComposite in2="hardAlpha_18_9" operator="out"/>
<feColorMatrix type="matrix" values="0 0 0 0 0 0 0 0 0 0 0 0 0 0 0 0 0 0 0.5 0"/>
<feBlend mode="normal" in2="feFloodId_18_9" result="dropShadow_1_18_9"/>
<feBlend mode="normal" in="SourceGraphic" in2="dropShadow_1_18_9" result="shape_18_9"/>
</filter>
<linearGradient id="linear_fill_18_13" x1="310.62744140625" y1="226.1253662109375" x2="918.218017578125" y2="888.1039428710938" gradientUnits="userSpaceOnUse">
<stop offset="0" stop-color="#639CFF"  />
<stop offset="1" stop-color="#4F78FF"  />
</linearGradient>
<filter id="filter_18_14" x="231.22882080078125" y="292.5534210205078" width="582.7235717773438" height="307.4617919921875" filterUnits="userSpaceOnUse" color-interpolation-filters="sRGB">
<feFlood flood-opacity="0" result="feFloodId_18_14"/>
<feColorMatrix in="SourceAlpha" type="matrix" values="0 0 0 0 0 0 0 0 0 0 0 0 0 0 0 0 0 0 127 0" result="hardAlpha_18_14"/>
<feOffset dx="0" dy="2"/>
<feGaussianBlur stdDeviation="32.5"/>
<feComposite in2="hardAlpha_18_14" operator="out"/>
<feColorMatrix type="matrix" values="0 0 0 0 0.4470588235294118 0 0 0 0 0.403921568627451 0 0 0 0 0.9215686274509803 0 0 0 0.5 0"/>
<feBlend mode="normal" in2="feFloodId_18_14" result="dropShadow_1_18_14"/>
<feBlend mode="normal" in="SourceGraphic" in2="dropShadow_1_18_14" result="shape_18_14"/>
</filter>
<linearGradient id="linear_fill_18_15" x1="175.32000732421875" y1="361.20018005371094" x2="352.07000732421875" y2="361.20018005371094" gradientUnits="userSpaceOnUse">
<stop offset="0" stop-color="#598EFF"  />
<stop offset="1" stop-color="#9669FF"  />
</linearGradient>
<filter id="filter_18_15" x="171.32000732421875" y="223.68017578125" width="184.75" height="279.0400085449219" filterUnits="userSpaceOnUse" color-interpolation-filters="sRGB">
<feFlood flood-opacity="0" result="feFloodId_18_15"/>
<feColorMatrix in="SourceAlpha" type="matrix" values="0 0 0 0 0 0 0 0 0 0 0 0 0 0 0 0 0 0 127 0" result="hardAlpha_18_15"/>
<feOffset dx="0" dy="2"/>
<feGaussianBlur stdDeviation="2"/>
<feComposite in2="hardAlpha_18_15" operator="out"/>
<feColorMatrix type="matrix" values="0 0 0 0 0 0 0 0 0 0 0 0 0 0 0 0 0 0 0.5 0"/>
<feBlend mode="normal" in2="feFloodId_18_15" result="dropShadow_1_18_15"/>
<feBlend mode="normal" in="SourceGraphic" in2="dropShadow_1_18_15" result="shape_18_15"/>
</filter>
<linearGradient id="linear_fill_18_16" x1="671.429931640625" y1="662.1498870849609" x2="846.663818359375" y2="662.1498870849609" gradientUnits="userSpaceOnUse">
<stop offset="0" stop-color="#6987FF"  />
<stop offset="1" stop-color="#7857FF"  />
</linearGradient>
<filter id="filter_18_16" x="667.429931640625" y="524.6298828125" width="184.75" height="279.0400085449219" filterUnits="userSpaceOnUse" color-interpolation-filters="sRGB">
<feFlood flood-opacity="0" result="feFloodId_18_16"/>
<feColorMatrix in="SourceAlpha" type="matrix" values="0 0 0 0 0 0 0 0 0 0 0 0 0 0 0 0 0 0 127 0" result="hardAlpha_18_16"/>
<feOffset dx="0" dy="2"/>
<feGaussianBlur stdDeviation="2"/>
<feComposite in2="hardAlpha_18_16" operator="out"/>
<feColorMatrix type="matrix" values="0 0 0 0 0 0 0 0 0 0 0 0 0 0 0 0 0 0 0.5 0"/>
<feBlend mode="normal" in2="feFloodId_18_16" result="dropShadow_1_18_16"/>
<feBlend mode="normal" in="SourceGraphic" in2="dropShadow_1_18_16" result="shape_18_16"/>
</filter>
<linearGradient id="linear_fill_18_18_0" x1="227.31998213199932" y1="755.0565591298677" x2="685.966282797393" y2="599.9999999999999" gradientUnits="userSpaceOnUse">
<stop offset="0" stop-color="#1F38DE"  />
<stop offset="1" stop-color="#3675FF"  />
</linearGradient>
<filter id="filter_18_18" x="327" y="580" width="369" height="187" filterUnits="userSpaceOnUse" color-interpolation-filters="sRGB">
<feFlood flood-opacity="0" result="feFloodId_18_18"/>
<feColorMatrix in="SourceAlpha" type="matrix" values="0 0 0 0 0 0 0 0 0 0 0 0 0 0 0 0 0 0 127 0" result="hardAlpha_18_18"/>
<feOffset dx="0" dy="0"/>
<feGaussianBlur stdDeviation="10"/>
<feComposite in2="hardAlpha_18_18" operator="out"/>
<feColorMatrix type="matrix" values="0 0 0 0 0.7254901960784313 0 0 0 0 0.2823529411764706 0 0 0 0 0.12156862745098039 0 0 0 0.23 0"/>
<feBlend mode="normal" in2="feFloodId_18_18" result="dropShadow_1_18_18"/>
<feBlend mode="normal" in="SourceGraphic" in2="dropShadow_1_18_18" result="shape_18_18"/>
</filter>
</defs>
</svg>
