<svg xmlns="http://www.w3.org/2000/svg" xmlns:xlink="http://www.w3.org/1999/xlink" width="13" height="14" viewBox="0 0 13 14" fill="currentColor"><path d="M13 7.56C13 11.1112 10.0842 14 6.5 14C2.91581 14 0 11.1112 0 7.56C0 5.397 1.08694 3.39069 2.90769 2.19208C3.33435 1.91153 3.90919 2.02839 4.19094 2.45323C4.47268 2.87807 4.35587 3.45045 3.92921 3.731C2.6292 4.58716 1.85267 6.01839 1.85267 7.56C1.85267 10.094 3.93677 12.1552 6.5 12.1552C9.06323 12.1552 11.1473 10.094 11.1473 7.56C11.1473 5.99253 10.3513 4.54839 9.01781 3.69653C8.58736 3.42139 8.46244 2.85116 8.73823 2.42253C9.01402 1.99391 9.58668 1.86953 10.0177 2.14363C11.8849 3.33631 13 5.36147 13 7.56ZM6.5 7.658C7.01157 7.658 7.42633 7.245 7.42633 6.73561L7.42633 0.922387C7.42633 0.413 7.01157 0 6.5 0C5.98843 0 5.57367 0.413 5.57367 0.922387L5.57367 6.73561C5.57367 7.245 5.98843 7.658 6.5 7.658Z"/></svg>