<svg width="14" height="14" viewBox="0 0 14 14" fill="none"><path d="M1.27273 0C1.2519 0 1.23109 0.00051039 1.21028 0.00153117C1.18947 0.00255194 1.1687 0.00408343 1.14798 0.00612498C1.12724 0.00816653 1.10658 0.0107188 1.08597 0.0137811C1.06537 0.0168304 1.04486 0.0203901 1.02443 0.0244602C1.004 0.0285172 0.983679 0.0330776 0.963474 0.038142C0.94327 0.0432065 0.923205 0.0487614 0.903278 0.0548068C0.883338 0.0608523 0.863565 0.0673818 0.843957 0.0743949C0.824349 0.0814082 0.80492 0.0889054 0.78567 0.0968862C0.766434 0.104854 0.747395 0.113293 0.728557 0.122202C0.70973 0.131097 0.691137 0.140457 0.672776 0.150281C0.654401 0.160105 0.636278 0.170366 0.618406 0.181065C0.600548 0.191777 0.582963 0.20292 0.565648 0.214494C0.548321 0.226068 0.53129 0.23806 0.51456 0.250469C0.497829 0.262878 0.481415 0.275685 0.465321 0.288889C0.449213 0.302108 0.433443 0.31571 0.418011 0.329696C0.40258 0.343682 0.3875 0.35804 0.37277 0.37277C0.35804 0.3875 0.343682 0.40258 0.329696 0.418011C0.31571 0.433443 0.302108 0.449213 0.288889 0.465321C0.275685 0.481415 0.262878 0.497829 0.250469 0.51456C0.23806 0.53129 0.226068 0.548321 0.214494 0.565648C0.20292 0.582963 0.191777 0.600548 0.181065 0.618406C0.170366 0.636278 0.160105 0.654401 0.150281 0.672776C0.140457 0.691137 0.131097 0.70973 0.122202 0.728557C0.113293 0.747395 0.104854 0.766434 0.0968862 0.78567C0.0889054 0.80492 0.0814082 0.824349 0.0743949 0.843957C0.0673818 0.863565 0.0608523 0.883338 0.0548068 0.903278C0.0487614 0.923205 0.0432065 0.94327 0.038142 0.963474C0.0330776 0.983679 0.0285172 1.004 0.0244602 1.02443C0.0203901 1.04486 0.0168304 1.06537 0.0137811 1.08597C0.0107188 1.10658 0.00816653 1.12724 0.00612498 1.14798C0.00408343 1.1687 0.00255194 1.18947 0.00153117 1.21028C0.00051039 1.23109 0 1.2519 0 1.27273L0 12.7273C0 12.7481 0.00051039 12.7689 0.00153117 12.7897C0.00255194 12.8105 0.00408343 12.8313 0.00612498 12.852C0.00816653 12.8728 0.0107188 12.8934 0.0137811 12.914C0.0168304 12.9346 0.0203901 12.9552 0.0244602 12.9756C0.0285172 12.996 0.0330776 13.0163 0.038142 13.0365C0.0432065 13.0567 0.0487614 13.0768 0.0548068 13.0967C0.0608523 13.1167 0.0673818 13.1364 0.0743949 13.156C0.0814082 13.1757 0.0889054 13.1951 0.0968862 13.2143C0.104854 13.2336 0.113293 13.2526 0.122202 13.2714C0.131097 13.2903 0.140457 13.3089 0.150281 13.3272C0.160105 13.3456 0.170366 13.3637 0.181065 13.3816C0.191777 13.3995 0.20292 13.417 0.214494 13.4344C0.226068 13.4517 0.23806 13.4687 0.250469 13.4854C0.262878 13.5022 0.275685 13.5186 0.288889 13.5347C0.302108 13.5508 0.31571 13.5666 0.329696 13.582C0.343682 13.5974 0.35804 13.6125 0.37277 13.6272C0.3875 13.642 0.40258 13.6563 0.418011 13.6703C0.433443 13.6843 0.449213 13.6979 0.465321 13.7111C0.481415 13.7243 0.497829 13.7371 0.51456 13.7495C0.53129 13.7619 0.548313 13.7739 0.565628 13.7855C0.582955 13.7971 0.600548 13.8082 0.618406 13.8189C0.636278 13.8296 0.654401 13.8399 0.672776 13.8497C0.691137 13.8595 0.70973 13.8689 0.728557 13.8778C0.747395 13.8867 0.766434 13.8951 0.78567 13.9031C0.80492 13.9111 0.824349 13.9186 0.843957 13.9256C0.863565 13.9326 0.883338 13.9391 0.903278 13.9452C0.923205 13.9512 0.94327 13.9568 0.963474 13.9619C0.983679 13.9669 1.004 13.9715 1.02443 13.9755C1.04486 13.9796 1.06537 13.9832 1.08597 13.9862C1.10658 13.9893 1.12724 13.9918 1.14798 13.9939C1.1687 13.9959 1.18947 13.9975 1.21028 13.9985C1.23109 13.9995 1.2519 14 1.27273 14L12.7273 14C12.7481 14 12.7689 13.9995 12.7897 13.9985C12.8105 13.9975 12.8313 13.9959 12.852 13.9939C12.8728 13.9918 12.8934 13.9893 12.914 13.9862C12.9346 13.9832 12.9552 13.9796 12.9756 13.9755C12.996 13.9715 13.0163 13.9669 13.0365 13.9619C13.0567 13.9568 13.0768 13.9512 13.0967 13.9452C13.1167 13.9391 13.1364 13.9326 13.156 13.9256C13.1757 13.9186 13.1951 13.9111 13.2143 13.9031C13.2336 13.8951 13.2526 13.8867 13.2714 13.8778C13.2903 13.8689 13.3089 13.8595 13.3272 13.8497C13.3456 13.8399 13.3637 13.8296 13.3816 13.8189C13.3995 13.8082 13.417 13.7971 13.4344 13.7855C13.4517 13.7739 13.4687 13.7619 13.4854 13.7495C13.5022 13.7371 13.5186 13.7243 13.5347 13.7111C13.5508 13.6979 13.5666 13.6843 13.582 13.6703C13.5974 13.6563 13.6125 13.642 13.6272 13.6272C13.642 13.6125 13.6563 13.5974 13.6703 13.582C13.6843 13.5666 13.6979 13.5508 13.7111 13.5347C13.7243 13.5186 13.7371 13.5022 13.7495 13.4854C13.7619 13.4687 13.7739 13.4517 13.7855 13.4344C13.7971 13.417 13.8082 13.3995 13.8189 13.3816C13.8296 13.3637 13.8399 13.3456 13.8497 13.3272C13.8595 13.3089 13.8689 13.2903 13.8778 13.2714C13.8867 13.2526 13.8951 13.2336 13.9031 13.2143C13.9111 13.1951 13.9186 13.1757 13.9256 13.156C13.9326 13.1364 13.9391 13.1167 13.9452 13.0967C13.9512 13.0768 13.9568 13.0567 13.9619 13.0365C13.9669 13.0163 13.9715 12.996 13.9755 12.9756C13.9796 12.9552 13.9832 12.9346 13.9862 12.914C13.9893 12.8934 13.9918 12.8728 13.9939 12.852C13.9959 12.8313 13.9975 12.8105 13.9985 12.7897C13.9995 12.7689 14 12.7481 14 12.7273L14 1.27273C14 1.2519 13.9995 1.23109 13.9985 1.21028C13.9975 1.18947 13.9959 1.1687 13.9939 1.14798C13.9918 1.12724 13.9893 1.10658 13.9862 1.08597C13.9832 1.06537 13.9796 1.04486 13.9755 1.02443C13.9715 1.004 13.9669 0.983679 13.9619 0.963474C13.9568 0.94327 13.9512 0.923205 13.9452 0.903278C13.9391 0.883338 13.9326 0.863565 13.9256 0.843957C13.9186 0.824349 13.9111 0.80492 13.9031 0.78567C13.8951 0.766434 13.8867 0.747395 13.8778 0.728557C13.8689 0.70973 13.8595 0.691137 13.8497 0.672776C13.8399 0.654401 13.8296 0.636278 13.8189 0.618406C13.8082 0.600548 13.7971 0.582955 13.7855 0.565628C13.7739 0.548313 13.7619 0.53129 13.7495 0.51456C13.7371 0.497829 13.7243 0.481415 13.7111 0.465321C13.6979 0.449213 13.6843 0.433443 13.6703 0.418011C13.6563 0.40258 13.642 0.3875 13.6272 0.37277C13.6125 0.35804 13.5974 0.343682 13.582 0.329696C13.5666 0.31571 13.5508 0.302108 13.5347 0.288889C13.5186 0.275685 13.5022 0.262878 13.4854 0.250469C13.4687 0.23806 13.4517 0.226068 13.4344 0.214494C13.417 0.20292 13.3995 0.191777 13.3816 0.181065C13.3637 0.170366 13.3456 0.160105 13.3272 0.150281C13.3089 0.140457 13.2903 0.131097 13.2714 0.122202C13.2526 0.113293 13.2336 0.104854 13.2143 0.0968862C13.1951 0.0889054 13.1757 0.0814082 13.156 0.0743949C13.1364 0.0673818 13.1167 0.0608523 13.0967 0.0548068C13.0768 0.0487614 13.0567 0.0432065 13.0365 0.038142C13.0163 0.0330776 12.996 0.0285172 12.9756 0.0244602C12.9552 0.0203901 12.9346 0.0168304 12.914 0.0137811C12.8934 0.0107188 12.8728 0.00816653 12.852 0.00612498C12.8313 0.00408343 12.8105 0.00255194 12.7897 0.00153117C12.7689 0.00051039 12.7481 0 12.7273 0L1.27273 0ZM1.27273 7.63636L12.7273 7.63636L12.7273 12.7273L1.27273 12.7273L1.27273 7.63636ZM5.09091 9.54545L5.09091 10.8182L11.4545 10.8182L11.4545 9.54545L5.09091 9.54545ZM2.54545 9.54545L2.54545 10.8182L3.81818 10.8182L3.81818 9.54545L2.54545 9.54545ZM1.27273 1.27273L12.7273 1.27273L12.7273 6.36364L1.27273 6.36364L1.27273 1.27273ZM5.09091 3.18182L5.09091 4.45455L11.4545 4.45455L11.4545 3.18182L5.09091 3.18182ZM2.54545 3.18182L2.54545 4.45455L3.81818 4.45455L3.81818 3.18182L2.54545 3.18182Z" fill="currentColor"/></svg>